<svg id="vector" xmlns="http://www.w3.org/2000/svg" width="60" height="60" viewBox="0 0 63 63"><path fill="#00000000" stroke-width="1" d="M34.148,50.186A25.238,25.199 89.998,1 1,50.509 19.596" stroke="#004373" id="path_0"/><path fill="#00000000" stroke-width="1" d="M40.78,51.476a10.627,10.611 89.999,0 0,21.22 0c0,-7.97 -5.305,-18.597 -10.611,-23.91a36.402,36.346 90.001,0 0,-10.611 23.91Z" stroke="#004373" id="path_1"/><path fill="#00000000" stroke-width="1" d="M41.201,20.924a15.97,15.945 89.999,0 1,-2.082 14.612" stroke="#004373" id="path_2"/><path fill="#00000000" stroke-width="1" d="M13.253,35.531a15.939,15.915 90,0 1,24.191 -20.557" stroke="#004373" id="path_3"/><path fill="#00000000" stroke-width="1" d="M26.19,30.222a3.985,3.978 89.999,1 0,-3.978 -3.985A3.985,3.978 89.999,0 0,26.19 30.222Z" stroke="#004373" id="path_4"/><path fill="#00000000" stroke-width="1" d="M29.005,23.418l11.775,-11.793" stroke="#004373" id="path_5"/></svg>