<?xml version="1.0" encoding="utf-8"?>
<svg width="33.31" height="50.002" viewBox="786.7 135.6 34.632 52" xmlns="http://www.w3.org/2000/svg">
  <g data-name="Gruppe 491">
    <g data-name="Interface-Essential / Tags/Bookmarks / bookmarks-2">
      <g data-name="Group 930">
        <g data-name="bookmarks-2">
          <path d="M809.568 149.927h8.882c1.226 0 2.221-1 2.221-2.227v-3.336a7.764 7.764 0 0 0-7.773-7.765h-17.765a7.764 7.764 0 0 0-7.772 7.765v41.086c0 1.227.706 1.516 1.57.657l9.533-9.54 9.534 9.54c.864.859 1.57.57 1.57-.657v-39.967a4.444 4.444 0 0 1 4.44-4.446" stroke-linejoin="round" stroke-linecap="round" stroke="#004373" data-name="Shape 4323" style="fill: rgba(0, 0, 0, 0);"/>
        </g>
      </g>
    </g>
    <g data-name="Interface-Essential / Tags/Bookmarks / bookmarks">
      <g data-name="Group 932">
        <g data-name="bookmarks">
          <g data-name="Shape 4330">
            <path d="M807.198 181.383c0 .78-.45.265-1.002-.284l-7.835-7.513-7.589 7.513c-.552.549-1.002 1.063-1.002.284v-35.768c0-3.023 2.043-6.418 6.417-6.418h13.593c3.339 0-2.582-.043-2.582 6.418v35.768Z" fill-rule="evenodd" fill="#004373"/>
            <path d="M807.198 181.383c0 .78-.45.265-1.002-.284l-7.835-7.513-7.589 7.513c-.552.549-1.002 1.063-1.002.284v-35.768c0-3.023 2.043-6.418 6.417-6.418h13.593c3.339 0-2.582-.043-2.582 6.418v35.768Z" stroke-linejoin="round" stroke-linecap="round" stroke="#004373" fill="transparent"/>
          </g>
        </g>
      </g>
    </g>
  </g>
</svg>